<svg data-v-423bf9ae="" xmlns="http://www.w3.org/2000/svg" viewBox="0 0 598 90" class="iconLeft"><!----><!----><!----><g data-v-423bf9ae="" id="b5306c3c-b432-440c-9cfc-534eb5b517e1" fill="#ffffff" transform="matrix(4.285714285714286,0,0,4.285714285714286,104.53719484806061,1.7999984196254175)"><path d="M1.32 9.72C1.32 12.38 3.07 14.14 5.54 14.14C8.13 14.14 9.77 12.26 9.77 9.72L9.77 3.78L8.67 3.78L8.67 9.77C8.67 11.82 7.36 13.13 5.54 13.13C3.64 13.13 2.44 11.72 2.44 9.77L2.44 3.78L1.32 3.78ZM15.90 6.58C14.71 6.58 13.75 7.04 13.10 7.85L12.96 6.72L12.21 6.72L12.21 17.08L13.17 17.08L13.17 12.94C13.80 13.69 14.69 14.14 15.89 14.14C17.91 14.14 19.53 12.46 19.53 10.33C19.53 8.23 17.89 6.58 15.90 6.58ZM15.81 13.23C14.59 13.23 13.75 12.63 13.24 11.63L13.24 9.07C13.72 8.12 14.59 7.49 15.81 7.49C17.22 7.49 18.47 8.72 18.47 10.33C18.47 11.96 17.25 13.23 15.81 13.23ZM21.13 8.54C21.13 11.48 26.08 10.02 26.10 12.05C26.11 12.88 25.30 13.29 24.12 13.29C22.90 13.29 21.92 12.75 21.73 11.69L20.73 11.69C20.96 13.34 22.44 14.14 24.09 14.14C25.82 14.14 27.12 13.40 27.12 12.05C27.12 9.14 22.15 10.57 22.15 8.54C22.15 7.94 22.75 7.43 24.02 7.43C25.42 7.43 25.91 8.13 26.01 8.99L26.98 8.99C26.89 7.70 25.98 6.58 24.05 6.58C22.12 6.58 21.13 7.43 21.13 8.54ZM34.55 9.30L35.56 9.30C35.45 7.94 34.13 6.58 32.20 6.58C30.04 6.58 28.48 8.20 28.48 10.33C28.48 12.47 30.04 14.14 32.23 14.14C33.96 14.14 35.38 13.03 35.53 11.54L34.52 11.54C34.34 12.57 33.40 13.23 32.20 13.23C30.74 13.23 29.54 12.07 29.54 10.36C29.54 8.69 30.70 7.49 32.23 7.49C33.54 7.49 34.45 8.44 34.55 9.30ZM40.11 6.58C38.39 6.58 37.17 7.56 37.07 9.02L38.07 9.02C38.12 8.18 38.92 7.49 40.07 7.49C41.36 7.49 42.11 8.16 42.11 9.67L42.11 9.94L39.84 9.93C37.93 9.93 36.78 10.79 36.78 12.01C36.78 13.27 37.83 14.14 39.17 14.14C40.46 14.14 41.48 13.55 42.24 12.96L42.45 14L43.13 14L43.13 9.67C43.13 7.70 42.04 6.58 40.11 6.58ZM37.81 12.00C37.81 11.19 38.53 10.79 39.86 10.79L42.11 10.79L42.11 12.11C41.36 12.70 40.40 13.22 39.38 13.22C38.53 13.22 37.81 12.78 37.81 12.00ZM46.56 3.08L45.51 3.08L45.51 14L46.56 14ZM52.12 6.58C50.08 6.58 48.50 8.19 48.50 10.33C48.50 12.50 50.04 14.14 52.14 14.14C53.80 14.14 55.06 13.06 55.30 11.76L54.31 11.76C54.10 12.66 53.24 13.23 52.14 13.23C50.69 13.23 49.63 12.15 49.52 10.63L55.34 10.63L55.44 10.54C55.62 8.41 54.14 6.58 52.12 6.58ZM49.56 9.74C49.81 8.39 50.88 7.48 52.11 7.48C53.40 7.48 54.29 8.48 54.43 9.76ZM66.44 8.71C67.48 8.30 68.15 7.48 68.15 6.43C68.15 4.76 66.86 3.78 64.76 3.78L61.39 3.78L61.39 14L65.04 14C67.27 14 68.46 12.81 68.46 11.30C68.46 9.81 67.54 9.04 66.44 8.71ZM64.74 4.72C66.16 4.72 67.09 5.25 67.09 6.48C67.09 7.50 66.07 8.29 64.69 8.29L62.47 8.29L62.47 4.72ZM64.99 13.06L62.47 13.06L62.47 9.23L64.71 9.23C65.74 9.23 67.38 9.55 67.38 11.20C67.38 12.21 66.60 13.06 64.99 13.06ZM73.19 6.58C71.47 6.58 70.25 7.56 70.15 9.02L71.15 9.02C71.20 8.18 72.00 7.49 73.15 7.49C74.44 7.49 75.19 8.16 75.19 9.67L75.19 9.94L72.93 9.93C71.01 9.93 69.86 10.79 69.86 12.01C69.86 13.27 70.91 14.14 72.25 14.14C73.54 14.14 74.56 13.55 75.32 12.96L75.53 14L76.22 14L76.22 9.67C76.22 7.70 75.12 6.58 73.19 6.58ZM70.90 12.00C70.90 11.19 71.61 10.79 72.94 10.79L75.19 10.79L75.19 12.11C74.44 12.70 73.49 13.22 72.46 13.22C71.61 13.22 70.90 12.78 70.90 12.00ZM82.84 6.58C81.68 6.58 80.61 6.99 79.49 7.78L79.32 6.72L78.57 6.72L78.57 14L79.60 14L79.60 8.65C80.60 7.98 81.66 7.50 82.57 7.50C83.68 7.50 84.31 8.12 84.31 9.30L84.31 14L85.36 14L85.36 9.25C85.36 7.50 84.41 6.58 82.84 6.58ZM93.07 14L94.32 14L91.03 9.83L94.01 6.72L92.75 6.72L88.73 10.93L88.73 3.08L87.70 3.08L87.70 14L88.73 14L88.73 12.24L90.33 10.56ZM96.14 5.10C96.57 5.10 96.94 4.73 96.94 4.27C96.94 3.85 96.57 3.50 96.14 3.50C95.69 3.50 95.34 3.85 95.34 4.27C95.34 4.73 95.69 5.10 96.14 5.10ZM96.63 6.72L95.58 6.72L95.58 14L96.63 14ZM103.36 6.58C102.20 6.58 101.14 6.99 100.02 7.78L99.85 6.72L99.09 6.72L99.09 14L100.13 14L100.13 8.65C101.12 7.98 102.19 7.50 103.10 7.50C104.20 7.50 104.83 8.12 104.83 9.30L104.83 14L105.88 14L105.88 9.25C105.88 7.50 104.93 6.58 103.36 6.58ZM114.27 6.72L114.10 7.87C113.47 7.03 112.53 6.58 111.36 6.58C109.31 6.58 107.67 8.20 107.67 10.32C107.67 12.46 109.30 14.07 111.38 14.07C112.55 14.07 113.41 13.65 114.03 12.87L114.03 13.71C114.03 15.11 112.90 16.06 111.47 16.06C110.33 16.06 109.38 15.57 109.21 14.80L108.21 14.80C108.50 16.10 109.77 16.95 111.47 16.95C113.48 16.95 115.00 15.64 115.00 13.71L115.00 6.72ZM111.43 13.17C109.97 13.17 108.74 11.91 108.74 10.32C108.74 8.72 109.97 7.49 111.43 7.49C112.63 7.49 113.50 8.13 113.96 9.09L113.96 11.56C113.47 12.56 112.63 13.17 111.43 13.17Z"></path></g><!----><g data-v-423bf9ae="" id="13d8b6d9-f5e4-445a-b59e-720637aae333" transform="matrix(1.001691750823267,0,0,1.001691750823267,-4.105630611264381,-5.008715900157576)" stroke="none" fill="#FFD009"><path d="M82.232 78.796c0 2.229-1.879 4.036-4.197 4.036s-4.197-1.807-4.197-4.036V44.538c0-2.229 1.879-4.036 4.197-4.036s4.197 1.807 4.197 4.036v34.258zM25.669 44.538c0-2.229-1.879-4.036-4.197-4.036s-4.197 1.807-4.197 4.036v34.257c0 2.229 1.879 4.036 4.197 4.036s4.197-1.807 4.197-4.036V44.538zm18.854 0c0-2.229-1.879-4.036-4.197-4.036s-4.197 1.807-4.197 4.036v34.257c0 2.229 1.879 4.036 4.197 4.036s4.197-1.807 4.197-4.036V44.538zm18.854 0c0-2.229-1.879-4.036-4.197-4.036s-4.197 1.807-4.197 4.036v34.257c0 2.229 1.879 4.036 4.197 4.036s4.197-1.807 4.197-4.036V44.538zm26.684-20.871L50.021 5.152 9.981 23.667h80.08zm3.092 8.54a3.784 3.784 0 00-3.778-3.79H10.667a3.784 3.784 0 00-3.778 3.79 3.784 3.784 0 003.778 3.79h78.708a3.785 3.785 0 003.778-3.79zm1.889 58.837a3.95 3.95 0 00-3.943-3.956H8.943A3.951 3.951 0 005 91.044 3.95 3.95 0 008.943 95h82.155a3.95 3.95 0 003.944-3.956z"></path></g><!----></svg>