<?xml version="1.0" ?>
<!DOCTYPE svg  PUBLIC '-//W3C//DTD SVG 1.1//EN'  'http://www.w3.org/Graphics/SVG/1.1/DTD/svg11.dtd'>
<!-- Uploaded to: SVG Repo, www.svgrepo.com, Generator: SVG Repo Mixer Tools -->
<svg fill="#000000" width="800px" height="800px" viewBox="0 0 846.66 846.66" style="shape-rendering:geometricPrecision; text-rendering:geometricPrecision; image-rendering:optimizeQuality; fill-rule:evenodd; clip-rule:evenodd" version="1.1" xml:space="preserve" xmlns="http://www.w3.org/2000/svg" xmlns:xlink="http://www.w3.org/1999/xlink">
<defs>
<style type="text/css">
   <![CDATA[
    .fil0 {fill:black;fill-rule:nonzero}
   ]]>
  </style>
</defs>
<g id="Layer_x0020_1">
<path class="fil0" d="M479.44 689.39l-56.11 -26.68 -96.38 45.83 -16.83 37.43 108.61 -26.98c3.25,-0.8 6.51,-0.72 9.54,0.08l108.27 26.9 -16.83 -37.43 -40.27 -19.15zm-138.6 -409.23c-37.49,14.87 -161.86,64.26 -188.88,79.6 -15.84,8.99 -31.26,24.7 -43.47,39.34l232.35 -28.23 0 -90.71zm0 129.59l-271.81 33.02 -0.01 -0.06c-15.88,1.89 -27.11,-15.53 -18.63,-29.22 0.11,-0.18 38.66,-62.31 82.55,-87.23 31.8,-18.04 167.1,-71.45 207.9,-87.56l0 -37.58c0,-65.8 66.53,-140.27 69.59,-143.02 7.92,-7.13 20.11,-6.49 27.24,1.43 0.19,0.22 68.15,75.07 68.15,141.59l0 37.58c40.8,16.11 176.1,69.52 207.9,87.56 43.89,24.92 82.44,87.05 82.55,87.23 8.48,13.69 -2.75,31.11 -18.63,29.22l-0.01 0.06 -271.81 -33.02 0 249.5 36.76 17.49 -0.01 0.02c4.02,1.89 7.41,5.18 9.37,9.56l35.63 79.28c7.39,15.56 -6.53,31.12 -21.83,27.34l-142.41 -35.39 -142.41 35.39 0 -0.02c-15.08,3.73 -28.8,-11.75 -22.18,-26.54l35.64 -79.31c1.74,-4.39 5.09,-8.16 9.7,-10.33l36.76 -17.49 0 -249.5zm126.35 231.13l0 -439.76c0,-34.98 -26.63,-75.61 -43.86,-98.24 -17.23,22.63 -43.86,63.26 -43.86,98.24l0 439.76c51.64,-24.56 35.92,-24.63 87.72,0zm38.63 -360.72l0 90.71 232.35 28.23c-33.3,-39.91 -52.37,-45.16 -112.11,-70.19 -37.27,-15.62 -82.18,-33.65 -120.24,-48.75z"/>
</g>
</svg>